<mxfile host="Electron" modified="2025-07-08T15:23:59.164Z" agent="Mozilla/5.0 (Windows NT 10.0; Win64; x64) AppleWebKit/537.36 (KHTML, like Gecko) draw.io/24.0.4 Chrome/120.0.6099.109 Electron/28.1.0 Safari/537.36" etag="vzTSPQLE3vn42VVFm0MX" version="24.0.4" type="device" pages="2">
  <diagram name="Page-1" id="mxls8lcutbs6KS0AdLAb">
    <mxGraphModel dx="2816" dy="1040" grid="1" gridSize="10" guides="1" tooltips="1" connect="1" arrows="1" fold="1" page="1" pageScale="1" pageWidth="850" pageHeight="1100" math="0" shadow="0">
      <root>
        <mxCell id="0" />
        <mxCell id="1" parent="0" />
        <mxCell id="saIM61kvLU6ngbY4BZQx-4" value="&lt;font style=&quot;font-size: 18px;&quot;&gt;&lt;b&gt;fsm_entropy_overlay&lt;/b&gt;&lt;/font&gt;&lt;div&gt;&lt;font size=&quot;3&quot;&gt;&lt;br&gt;&lt;/font&gt;&lt;/div&gt;&lt;div&gt;&lt;font size=&quot;3&quot;&gt;(The central FSM)&lt;br&gt;&lt;br&gt;&lt;/font&gt;&lt;/div&gt;&lt;div&gt;&lt;font size=&quot;3&quot;&gt;STATES:&lt;/font&gt;&lt;/div&gt;&lt;div&gt;&lt;font size=&quot;3&quot;&gt;- STATE_OK&lt;/font&gt;&lt;/div&gt;&lt;div&gt;&lt;font size=&quot;3&quot;&gt;- STATE_STALL&lt;/font&gt;&lt;/div&gt;&lt;div&gt;&lt;font size=&quot;3&quot;&gt;- STATE_FLUSH&lt;/font&gt;&lt;/div&gt;&lt;div&gt;&lt;font size=&quot;3&quot;&gt;- STATE_LOCK&lt;/font&gt;&lt;/div&gt;" style="rounded=1;whiteSpace=wrap;html=1;" parent="1" vertex="1">
          <mxGeometry x="300" y="430" width="320" height="430" as="geometry" />
        </mxCell>
        <mxCell id="saIM61kvLU6ngbY4BZQx-8" value="&#xa;&lt;div style=&quot;color: #f8f8f2;background-color: #282a36;font-family: Consolas, &#39;Courier New&#39;, monospace;font-weight: normal;font-size: 14px;line-height: 19px;white-space: pre;&quot;&gt;&lt;div&gt;&lt;span style=&quot;color: #f8f8f2;&quot;&gt;ml_predicted_action&lt;/span&gt;&lt;/div&gt;&lt;/div&gt;&#xa;&#xa;" style="text;html=1;align=center;verticalAlign=middle;whiteSpace=wrap;rounded=0;" parent="1" vertex="1">
          <mxGeometry x="110" y="535" width="60" height="30" as="geometry" />
        </mxCell>
        <mxCell id="saIM61kvLU6ngbY4BZQx-9" value="&lt;div style=&quot;color: rgb(248, 248, 242); background-color: rgb(40, 42, 54); font-family: Consolas, &amp;quot;Courier New&amp;quot;, monospace; font-size: 14px; line-height: 19px; white-space: pre;&quot;&gt;internal_entropy_score&lt;/div&gt;" style="text;html=1;align=center;verticalAlign=middle;whiteSpace=wrap;rounded=0;" parent="1" vertex="1">
          <mxGeometry x="100" y="560" width="60" height="30" as="geometry" />
        </mxCell>
        <mxCell id="saIM61kvLU6ngbY4BZQx-10" value="&lt;div style=&quot;color: rgb(248, 248, 242); background-color: rgb(40, 42, 54); font-family: Consolas, &amp;quot;Courier New&amp;quot;, monospace; font-size: 14px; line-height: 19px; white-space: pre;&quot;&gt;internal_hazard_flag&lt;/div&gt;" style="text;html=1;align=center;verticalAlign=middle;whiteSpace=wrap;rounded=0;" parent="1" vertex="1">
          <mxGeometry x="110" y="590" width="60" height="30" as="geometry" />
        </mxCell>
        <mxCell id="saIM61kvLU6ngbY4BZQx-11" value="&#xa;&lt;div style=&quot;color: #f8f8f2;background-color: #282a36;font-family: Consolas, &#39;Courier New&#39;, monospace;font-weight: normal;font-size: 14px;line-height: 19px;white-space: pre;&quot;&gt;&lt;div&gt;&lt;span style=&quot;color: #f8f8f2;&quot;&gt;analog_lock_override&lt;/span&gt;&lt;/div&gt;&lt;/div&gt;&#xa;&#xa;" style="text;whiteSpace=wrap;html=1;" parent="1" vertex="1">
          <mxGeometry x="65" y="610" width="150" height="40" as="geometry" />
        </mxCell>
        <mxCell id="rz5DC4yHk0Q_457Ff8-o-45" style="edgeStyle=orthogonalEdgeStyle;rounded=0;orthogonalLoop=1;jettySize=auto;html=1;exitX=1;exitY=0.5;exitDx=0;exitDy=0;entryX=0;entryY=0.5;entryDx=0;entryDy=0;" parent="1" source="saIM61kvLU6ngbY4BZQx-12" target="rz5DC4yHk0Q_457Ff8-o-1" edge="1">
          <mxGeometry relative="1" as="geometry">
            <mxPoint x="1120" y="680" as="targetPoint" />
          </mxGeometry>
        </mxCell>
        <mxCell id="rz5DC4yHk0Q_457Ff8-o-58" style="edgeStyle=orthogonalEdgeStyle;rounded=0;orthogonalLoop=1;jettySize=auto;html=1;exitX=0.5;exitY=1;exitDx=0;exitDy=0;" parent="1" source="saIM61kvLU6ngbY4BZQx-12" target="rz5DC4yHk0Q_457Ff8-o-5" edge="1">
          <mxGeometry relative="1" as="geometry" />
        </mxCell>
        <mxCell id="saIM61kvLU6ngbY4BZQx-12" value="&lt;font style=&quot;font-size: 14px;&quot;&gt;&lt;b&gt;quantum_entropy_detector&lt;/b&gt;&lt;/font&gt;" style="rounded=1;whiteSpace=wrap;html=1;" parent="1" vertex="1">
          <mxGeometry x="880" y="475" width="180" height="85" as="geometry" />
        </mxCell>
        <mxCell id="saIM61kvLU6ngbY4BZQx-13" value="&lt;div style=&quot;color: rgb(248, 248, 242); background-color: rgb(40, 42, 54); font-family: Consolas, &amp;quot;Courier New&amp;quot;, monospace; font-size: 14px; line-height: 19px; white-space: pre;&quot;&gt;analog_flush_override&lt;/div&gt;" style="text;html=1;align=center;verticalAlign=middle;whiteSpace=wrap;rounded=0;" parent="1" vertex="1">
          <mxGeometry x="110" y="660" width="60" height="30" as="geometry" />
        </mxCell>
        <mxCell id="saIM61kvLU6ngbY4BZQx-14" value="&#xa;&lt;div style=&quot;color: #f8f8f2;background-color: #282a36;font-family: Consolas, &#39;Courier New&#39;, monospace;font-weight: normal;font-size: 14px;line-height: 19px;white-space: pre;&quot;&gt;&lt;div&gt;&lt;span style=&quot;color: #f8f8f2;&quot;&gt;classified_entropy_level&lt;/span&gt;&lt;/div&gt;&lt;/div&gt;&#xa;&#xa;" style="text;html=1;align=center;verticalAlign=middle;whiteSpace=wrap;rounded=0;" parent="1" vertex="1">
          <mxGeometry x="100" y="700" width="60" height="30" as="geometry" />
        </mxCell>
        <mxCell id="saIM61kvLU6ngbY4BZQx-15" value="&#xa;&lt;div style=&quot;color: #f8f8f2;background-color: #282a36;font-family: Consolas, &#39;Courier New&#39;, monospace;font-weight: normal;font-size: 14px;line-height: 19px;white-space: pre;&quot;&gt;&lt;div&gt;&lt;span style=&quot;color: #f8f8f2;&quot;&gt;&amp;nbsp;quantum_override_signal&lt;/span&gt;&lt;/div&gt;&lt;/div&gt;&#xa;&#xa;" style="text;html=1;align=center;verticalAlign=middle;whiteSpace=wrap;rounded=0;" parent="1" vertex="1">
          <mxGeometry x="100" y="730" width="60" height="30" as="geometry" />
        </mxCell>
        <mxCell id="saIM61kvLU6ngbY4BZQx-16" value="&#xa;&lt;div style=&quot;color: #f8f8f2;background-color: #282a36;font-family: Consolas, &#39;Courier New&#39;, monospace;font-weight: normal;font-size: 14px;line-height: 19px;white-space: pre;&quot;&gt;&lt;div&gt;&lt;span style=&quot;color: #f8f8f2;&quot;&gt;instr_type&lt;/span&gt;&lt;/div&gt;&lt;/div&gt;&#xa;&#xa;" style="text;html=1;align=center;verticalAlign=middle;whiteSpace=wrap;rounded=0;" parent="1" vertex="1">
          <mxGeometry x="155" y="760" width="60" height="30" as="geometry" />
        </mxCell>
        <mxCell id="saIM61kvLU6ngbY4BZQx-21" value="" style="edgeStyle=elbowEdgeStyle;elbow=horizontal;endArrow=classic;html=1;curved=0;rounded=0;endSize=8;startSize=8;exitX=1.067;exitY=0.075;exitDx=0;exitDy=0;exitPerimeter=0;entryX=0.003;entryY=0.135;entryDx=0;entryDy=0;entryPerimeter=0;" parent="1" edge="1">
          <mxGeometry width="50" height="50" relative="1" as="geometry">
            <mxPoint x="230" y="770.1" as="sourcePoint" />
            <mxPoint x="296.94000000000005" y="770.0000000000001" as="targetPoint" />
            <Array as="points">
              <mxPoint x="235.98000000000002" y="770.1" />
            </Array>
          </mxGeometry>
        </mxCell>
        <mxCell id="saIM61kvLU6ngbY4BZQx-22" value="" style="edgeStyle=elbowEdgeStyle;elbow=horizontal;endArrow=classic;html=1;curved=0;rounded=0;endSize=8;startSize=8;exitX=1.067;exitY=0.075;exitDx=0;exitDy=0;exitPerimeter=0;entryX=0.003;entryY=0.135;entryDx=0;entryDy=0;entryPerimeter=0;" parent="1" edge="1">
          <mxGeometry width="50" height="50" relative="1" as="geometry">
            <mxPoint x="223.06" y="740.1" as="sourcePoint" />
            <mxPoint x="290.00000000000006" y="740.0000000000001" as="targetPoint" />
            <Array as="points">
              <mxPoint x="229.04000000000002" y="740.1" />
            </Array>
          </mxGeometry>
        </mxCell>
        <mxCell id="saIM61kvLU6ngbY4BZQx-23" value="" style="edgeStyle=elbowEdgeStyle;elbow=horizontal;endArrow=classic;html=1;curved=0;rounded=0;endSize=8;startSize=8;exitX=1.067;exitY=0.075;exitDx=0;exitDy=0;exitPerimeter=0;entryX=0.003;entryY=0.135;entryDx=0;entryDy=0;entryPerimeter=0;" parent="1" edge="1">
          <mxGeometry width="50" height="50" relative="1" as="geometry">
            <mxPoint x="223.06" y="710.1" as="sourcePoint" />
            <mxPoint x="290.00000000000006" y="710.0000000000001" as="targetPoint" />
            <Array as="points">
              <mxPoint x="229.04000000000005" y="710.1" />
            </Array>
          </mxGeometry>
        </mxCell>
        <mxCell id="saIM61kvLU6ngbY4BZQx-24" value="" style="edgeStyle=elbowEdgeStyle;elbow=horizontal;endArrow=classic;html=1;curved=0;rounded=0;endSize=8;startSize=8;exitX=1.067;exitY=0.075;exitDx=0;exitDy=0;exitPerimeter=0;entryX=0.003;entryY=0.135;entryDx=0;entryDy=0;entryPerimeter=0;" parent="1" edge="1">
          <mxGeometry width="50" height="50" relative="1" as="geometry">
            <mxPoint x="223.06" y="674.6" as="sourcePoint" />
            <mxPoint x="290.00000000000006" y="674.5000000000001" as="targetPoint" />
            <Array as="points">
              <mxPoint x="229.04000000000002" y="674.6" />
            </Array>
          </mxGeometry>
        </mxCell>
        <mxCell id="saIM61kvLU6ngbY4BZQx-25" value="" style="edgeStyle=elbowEdgeStyle;elbow=horizontal;endArrow=classic;html=1;curved=0;rounded=0;endSize=8;startSize=8;exitX=1.067;exitY=0.075;exitDx=0;exitDy=0;exitPerimeter=0;entryX=0.003;entryY=0.135;entryDx=0;entryDy=0;entryPerimeter=0;" parent="1" edge="1">
          <mxGeometry width="50" height="50" relative="1" as="geometry">
            <mxPoint x="220" y="580.1" as="sourcePoint" />
            <mxPoint x="286.94000000000005" y="580.0000000000001" as="targetPoint" />
            <Array as="points">
              <mxPoint x="225.98000000000002" y="580.1" />
            </Array>
          </mxGeometry>
        </mxCell>
        <mxCell id="saIM61kvLU6ngbY4BZQx-26" value="" style="edgeStyle=elbowEdgeStyle;elbow=horizontal;endArrow=classic;html=1;curved=0;rounded=0;endSize=8;startSize=8;exitX=1.067;exitY=0.075;exitDx=0;exitDy=0;exitPerimeter=0;entryX=0.003;entryY=0.135;entryDx=0;entryDy=0;entryPerimeter=0;" parent="1" edge="1">
          <mxGeometry width="50" height="50" relative="1" as="geometry">
            <mxPoint x="223.06" y="609.1" as="sourcePoint" />
            <mxPoint x="290.00000000000006" y="609.0000000000001" as="targetPoint" />
            <Array as="points">
              <mxPoint x="229.04000000000002" y="609.1" />
            </Array>
          </mxGeometry>
        </mxCell>
        <mxCell id="saIM61kvLU6ngbY4BZQx-28" value="" style="edgeStyle=elbowEdgeStyle;elbow=horizontal;endArrow=classic;html=1;curved=0;rounded=0;endSize=8;startSize=8;exitX=1.067;exitY=0.075;exitDx=0;exitDy=0;exitPerimeter=0;entryX=0.003;entryY=0.135;entryDx=0;entryDy=0;entryPerimeter=0;" parent="1" edge="1">
          <mxGeometry width="50" height="50" relative="1" as="geometry">
            <mxPoint x="223.06" y="640" as="sourcePoint" />
            <mxPoint x="290.00000000000006" y="639.9000000000001" as="targetPoint" />
            <Array as="points">
              <mxPoint x="229.04000000000002" y="640" />
            </Array>
          </mxGeometry>
        </mxCell>
        <mxCell id="saIM61kvLU6ngbY4BZQx-30" value="" style="edgeStyle=elbowEdgeStyle;elbow=horizontal;endArrow=classic;html=1;curved=0;rounded=0;endSize=8;startSize=8;exitX=1.067;exitY=0.075;exitDx=0;exitDy=0;exitPerimeter=0;entryX=0.003;entryY=0.135;entryDx=0;entryDy=0;entryPerimeter=0;" parent="1" edge="1">
          <mxGeometry width="50" height="50" relative="1" as="geometry">
            <mxPoint x="631.53" y="644.6" as="sourcePoint" />
            <mxPoint x="698.47" y="644.5000000000001" as="targetPoint" />
            <Array as="points">
              <mxPoint x="637.51" y="644.6" />
            </Array>
          </mxGeometry>
        </mxCell>
        <mxCell id="saIM61kvLU6ngbY4BZQx-32" value="&lt;div style=&quot;color: rgb(248, 248, 242); background-color: rgb(40, 42, 54); font-family: Consolas, &amp;quot;Courier New&amp;quot;, monospace; font-size: 14px; line-height: 19px; white-space: pre;&quot;&gt;fsm_state&lt;/div&gt;" style="text;html=1;align=center;verticalAlign=middle;whiteSpace=wrap;rounded=0;" parent="1" vertex="1">
          <mxGeometry x="710" y="630" width="60" height="30" as="geometry" />
        </mxCell>
        <mxCell id="rz5DC4yHk0Q_457Ff8-o-1" value="&lt;font style=&quot;font-size: 18px;&quot;&gt;&lt;b style=&quot;&quot;&gt;entropy_trigger_decoder&lt;/b&gt;&lt;/font&gt;" style="rounded=1;whiteSpace=wrap;html=1;" parent="1" vertex="1">
          <mxGeometry x="1180" y="430" width="220" height="240" as="geometry" />
        </mxCell>
        <mxCell id="rz5DC4yHk0Q_457Ff8-o-8" style="edgeStyle=orthogonalEdgeStyle;rounded=0;orthogonalLoop=1;jettySize=auto;html=1;exitX=1;exitY=0.5;exitDx=0;exitDy=0;entryX=0.75;entryY=1;entryDx=0;entryDy=0;" parent="1" source="rz5DC4yHk0Q_457Ff8-o-2" target="rz5DC4yHk0Q_457Ff8-o-5" edge="1">
          <mxGeometry relative="1" as="geometry">
            <mxPoint x="720" y="1020" as="targetPoint" />
            <Array as="points">
              <mxPoint x="955" y="1020" />
            </Array>
          </mxGeometry>
        </mxCell>
        <mxCell id="rz5DC4yHk0Q_457Ff8-o-2" value="&lt;font style=&quot;font-size: 14px;&quot;&gt;&lt;b&gt;pattern_detector&lt;/b&gt;&lt;/font&gt;" style="rounded=1;whiteSpace=wrap;html=1;" parent="1" vertex="1">
          <mxGeometry x="470" y="990" width="180" height="60" as="geometry" />
        </mxCell>
        <mxCell id="rz5DC4yHk0Q_457Ff8-o-4" value="&lt;b&gt;&lt;font style=&quot;font-size: 14px;&quot;&gt;chaos_detector&lt;/font&gt;&lt;/b&gt;" style="rounded=1;whiteSpace=wrap;html=1;" parent="1" vertex="1">
          <mxGeometry x="470" y="880" width="180" height="90" as="geometry" />
        </mxCell>
        <mxCell id="rz5DC4yHk0Q_457Ff8-o-85" style="edgeStyle=orthogonalEdgeStyle;rounded=0;orthogonalLoop=1;jettySize=auto;html=1;exitX=1;exitY=0.25;exitDx=0;exitDy=0;" parent="1" source="rz5DC4yHk0Q_457Ff8-o-5" target="rz5DC4yHk0Q_457Ff8-o-83" edge="1">
          <mxGeometry relative="1" as="geometry" />
        </mxCell>
        <mxCell id="rz5DC4yHk0Q_457Ff8-o-86" style="edgeStyle=orthogonalEdgeStyle;rounded=0;orthogonalLoop=1;jettySize=auto;html=1;exitX=1;exitY=0.5;exitDx=0;exitDy=0;" parent="1" source="rz5DC4yHk0Q_457Ff8-o-5" target="rz5DC4yHk0Q_457Ff8-o-81" edge="1">
          <mxGeometry relative="1" as="geometry">
            <mxPoint x="1050" y="719.6666666666667" as="targetPoint" />
            <Array as="points">
              <mxPoint x="1000" y="725" />
            </Array>
          </mxGeometry>
        </mxCell>
        <mxCell id="rz5DC4yHk0Q_457Ff8-o-87" style="edgeStyle=orthogonalEdgeStyle;rounded=0;orthogonalLoop=1;jettySize=auto;html=1;exitX=1;exitY=0.75;exitDx=0;exitDy=0;" parent="1" source="rz5DC4yHk0Q_457Ff8-o-5" target="rz5DC4yHk0Q_457Ff8-o-82" edge="1">
          <mxGeometry relative="1" as="geometry">
            <Array as="points">
              <mxPoint x="1000" y="745" />
            </Array>
          </mxGeometry>
        </mxCell>
        <mxCell id="rz5DC4yHk0Q_457Ff8-o-5" value="&lt;font style=&quot;font-size: 14px;&quot;&gt;&lt;b&gt;archon_hazard_overide_unit&lt;/b&gt;&lt;/font&gt;" style="rounded=1;whiteSpace=wrap;html=1;" parent="1" vertex="1">
          <mxGeometry x="820" y="690" width="180" height="60" as="geometry" />
        </mxCell>
        <mxCell id="rz5DC4yHk0Q_457Ff8-o-48" style="edgeStyle=orthogonalEdgeStyle;rounded=0;orthogonalLoop=1;jettySize=auto;html=1;exitX=1;exitY=0.5;exitDx=0;exitDy=0;" parent="1" edge="1">
          <mxGeometry relative="1" as="geometry">
            <mxPoint x="337.5" y="320" as="targetPoint" />
            <mxPoint x="232.5" y="320" as="sourcePoint" />
          </mxGeometry>
        </mxCell>
        <mxCell id="rz5DC4yHk0Q_457Ff8-o-6" value="&lt;font style=&quot;font-size: 18px;&quot;&gt;&lt;b&gt;entropy_control_logic&lt;/b&gt;&lt;/font&gt;" style="rounded=1;whiteSpace=wrap;html=1;" parent="1" vertex="1">
          <mxGeometry x="55" y="300" width="170" height="60" as="geometry" />
        </mxCell>
        <mxCell id="rz5DC4yHk0Q_457Ff8-o-9" value="anomoly_detected" style="text;html=1;align=center;verticalAlign=middle;resizable=0;points=[];autosize=1;strokeColor=none;fillColor=none;" parent="1" vertex="1">
          <mxGeometry x="650" y="990" width="120" height="30" as="geometry" />
        </mxCell>
        <mxCell id="rz5DC4yHk0Q_457Ff8-o-12" value="" style="endArrow=classic;html=1;rounded=0;" parent="1" edge="1">
          <mxGeometry width="50" height="50" relative="1" as="geometry">
            <mxPoint x="390" y="1020" as="sourcePoint" />
            <mxPoint x="465" y="1020" as="targetPoint" />
          </mxGeometry>
        </mxCell>
        <mxCell id="rz5DC4yHk0Q_457Ff8-o-16" value="zero, overflow, negative, carry flags" style="text;html=1;align=center;verticalAlign=middle;resizable=0;points=[];autosize=1;strokeColor=none;fillColor=none;" parent="1" vertex="1">
          <mxGeometry x="170" y="1005" width="210" height="30" as="geometry" />
        </mxCell>
        <mxCell id="rz5DC4yHk0Q_457Ff8-o-17" value="reset" style="text;html=1;align=center;verticalAlign=middle;resizable=0;points=[];autosize=1;strokeColor=none;fillColor=none;" parent="1" vertex="1">
          <mxGeometry x="330" y="910" width="50" height="30" as="geometry" />
        </mxCell>
        <mxCell id="rz5DC4yHk0Q_457Ff8-o-20" value="" style="endArrow=classic;html=1;rounded=0;" parent="1" edge="1">
          <mxGeometry width="50" height="50" relative="1" as="geometry">
            <mxPoint x="380" y="909" as="sourcePoint" />
            <mxPoint x="455" y="909" as="targetPoint" />
          </mxGeometry>
        </mxCell>
        <mxCell id="rz5DC4yHk0Q_457Ff8-o-21" value="" style="endArrow=classic;html=1;rounded=0;" parent="1" edge="1">
          <mxGeometry width="50" height="50" relative="1" as="geometry">
            <mxPoint x="380" y="940" as="sourcePoint" />
            <mxPoint x="455" y="940" as="targetPoint" />
          </mxGeometry>
        </mxCell>
        <mxCell id="rz5DC4yHk0Q_457Ff8-o-22" value="" style="endArrow=classic;html=1;rounded=0;" parent="1" edge="1">
          <mxGeometry width="50" height="50" relative="1" as="geometry">
            <mxPoint x="380" y="960" as="sourcePoint" />
            <mxPoint x="455" y="960" as="targetPoint" />
          </mxGeometry>
        </mxCell>
        <mxCell id="rz5DC4yHk0Q_457Ff8-o-25" value="branch_mispredicted" style="text;html=1;align=center;verticalAlign=middle;whiteSpace=wrap;rounded=0;" parent="1" vertex="1">
          <mxGeometry x="290" y="890" width="60" height="30" as="geometry" />
        </mxCell>
        <mxCell id="rz5DC4yHk0Q_457Ff8-o-27" value="data_mem_read_data" style="text;html=1;align=center;verticalAlign=middle;whiteSpace=wrap;rounded=0;" parent="1" vertex="1">
          <mxGeometry x="290" y="930" width="60" height="30" as="geometry" />
        </mxCell>
        <mxCell id="rz5DC4yHk0Q_457Ff8-o-29" value="mem_access_addr" style="text;html=1;align=center;verticalAlign=middle;whiteSpace=wrap;rounded=0;" parent="1" vertex="1">
          <mxGeometry x="300" y="950" width="60" height="30" as="geometry" />
        </mxCell>
        <mxCell id="rz5DC4yHk0Q_457Ff8-o-30" value="" style="endArrow=classic;html=1;rounded=0;entryX=0.5;entryY=1;entryDx=0;entryDy=0;" parent="1" target="rz5DC4yHk0Q_457Ff8-o-5" edge="1">
          <mxGeometry width="50" height="50" relative="1" as="geometry">
            <mxPoint x="660" y="920" as="sourcePoint" />
            <mxPoint x="735" y="920" as="targetPoint" />
            <Array as="points">
              <mxPoint x="910" y="920" />
            </Array>
          </mxGeometry>
        </mxCell>
        <mxCell id="rz5DC4yHk0Q_457Ff8-o-31" value="chaos_score_out" style="text;html=1;align=center;verticalAlign=middle;resizable=0;points=[];autosize=1;strokeColor=none;fillColor=none;" parent="1" vertex="1">
          <mxGeometry x="655" y="890" width="110" height="30" as="geometry" />
        </mxCell>
        <mxCell id="rz5DC4yHk0Q_457Ff8-o-32" value="" style="endArrow=classic;html=1;rounded=0;" parent="1" edge="1">
          <mxGeometry width="50" height="50" relative="1" as="geometry">
            <mxPoint x="790" y="484.5" as="sourcePoint" />
            <mxPoint x="865" y="484.5" as="targetPoint" />
          </mxGeometry>
        </mxCell>
        <mxCell id="rz5DC4yHk0Q_457Ff8-o-34" value="" style="endArrow=classic;html=1;rounded=0;" parent="1" edge="1">
          <mxGeometry width="50" height="50" relative="1" as="geometry">
            <mxPoint x="790" y="510" as="sourcePoint" />
            <mxPoint x="865" y="510" as="targetPoint" />
          </mxGeometry>
        </mxCell>
        <mxCell id="rz5DC4yHk0Q_457Ff8-o-35" value="" style="endArrow=classic;html=1;rounded=0;" parent="1" edge="1">
          <mxGeometry width="50" height="50" relative="1" as="geometry">
            <mxPoint x="790" y="535" as="sourcePoint" />
            <mxPoint x="865" y="535" as="targetPoint" />
          </mxGeometry>
        </mxCell>
        <mxCell id="rz5DC4yHk0Q_457Ff8-o-39" value="entropy_score_out" style="text;html=1;align=center;verticalAlign=middle;resizable=0;points=[];autosize=1;strokeColor=none;fillColor=none;" parent="1" vertex="1">
          <mxGeometry x="1060" y="480" width="120" height="30" as="geometry" />
        </mxCell>
        <mxCell id="rz5DC4yHk0Q_457Ff8-o-40" value="alu_result" style="text;html=1;align=center;verticalAlign=middle;whiteSpace=wrap;rounded=0;" parent="1" vertex="1">
          <mxGeometry x="720" y="470" width="60" height="30" as="geometry" />
        </mxCell>
        <mxCell id="rz5DC4yHk0Q_457Ff8-o-42" value="instr_opcode" style="text;html=1;align=center;verticalAlign=middle;whiteSpace=wrap;rounded=0;" parent="1" vertex="1">
          <mxGeometry x="720" y="490" width="60" height="30" as="geometry" />
        </mxCell>
        <mxCell id="rz5DC4yHk0Q_457Ff8-o-43" value="zero_flag" style="text;html=1;align=center;verticalAlign=middle;whiteSpace=wrap;rounded=0;" parent="1" vertex="1">
          <mxGeometry x="730" y="520" width="60" height="30" as="geometry" />
        </mxCell>
        <mxCell id="rz5DC4yHk0Q_457Ff8-o-47" value="signal_class" style="text;html=1;align=center;verticalAlign=middle;resizable=0;points=[];autosize=1;strokeColor=none;fillColor=none;" parent="1" vertex="1">
          <mxGeometry x="1280" y="700" width="90" height="30" as="geometry" />
        </mxCell>
        <mxCell id="rz5DC4yHk0Q_457Ff8-o-50" value="" style="endArrow=classic;html=1;rounded=0;" parent="1" edge="1">
          <mxGeometry width="50" height="50" relative="1" as="geometry">
            <mxPoint x="-20" y="329.5" as="sourcePoint" />
            <mxPoint x="55" y="329.5" as="targetPoint" />
          </mxGeometry>
        </mxCell>
        <mxCell id="rz5DC4yHk0Q_457Ff8-o-53" style="edgeStyle=orthogonalEdgeStyle;rounded=0;orthogonalLoop=1;jettySize=auto;html=1;exitX=1;exitY=0.5;exitDx=0;exitDy=0;" parent="1" edge="1">
          <mxGeometry relative="1" as="geometry">
            <mxPoint x="337.5" y="340" as="targetPoint" />
            <mxPoint x="232.5" y="340" as="sourcePoint" />
          </mxGeometry>
        </mxCell>
        <mxCell id="rz5DC4yHk0Q_457Ff8-o-54" value="entropy_stall" style="text;html=1;align=center;verticalAlign=middle;whiteSpace=wrap;rounded=0;" parent="1" vertex="1">
          <mxGeometry x="350" y="310" width="60" height="30" as="geometry" />
        </mxCell>
        <mxCell id="rz5DC4yHk0Q_457Ff8-o-55" value="entropy_flush" style="text;html=1;align=center;verticalAlign=middle;whiteSpace=wrap;rounded=0;" parent="1" vertex="1">
          <mxGeometry x="350" y="330" width="60" height="30" as="geometry" />
        </mxCell>
        <mxCell id="rz5DC4yHk0Q_457Ff8-o-56" value="external_entropy_in" style="text;html=1;align=center;verticalAlign=middle;resizable=0;points=[];autosize=1;strokeColor=none;fillColor=none;" parent="1" vertex="1">
          <mxGeometry x="-145" y="315" width="130" height="30" as="geometry" />
        </mxCell>
        <mxCell id="rz5DC4yHk0Q_457Ff8-o-59" value="entropy_score_out" style="text;html=1;align=center;verticalAlign=middle;resizable=0;points=[];autosize=1;strokeColor=none;fillColor=none;" parent="1" vertex="1">
          <mxGeometry x="970" y="565" width="120" height="30" as="geometry" />
        </mxCell>
        <mxCell id="rz5DC4yHk0Q_457Ff8-o-62" value="" style="edgeStyle=elbowEdgeStyle;elbow=horizontal;endArrow=classic;html=1;curved=0;rounded=0;endSize=8;startSize=8;exitX=1.067;exitY=0.075;exitDx=0;exitDy=0;exitPerimeter=0;" parent="1" edge="1">
          <mxGeometry width="50" height="50" relative="1" as="geometry">
            <mxPoint x="770" y="714.7" as="sourcePoint" />
            <mxPoint x="820" y="715" as="targetPoint" />
            <Array as="points">
              <mxPoint x="800" y="714.6" />
            </Array>
          </mxGeometry>
        </mxCell>
        <mxCell id="rz5DC4yHk0Q_457Ff8-o-64" value="branch_miss_rate_tracker" style="text;html=1;align=center;verticalAlign=middle;whiteSpace=wrap;rounded=0;" parent="1" vertex="1">
          <mxGeometry x="670" y="699.9999999999999" width="60" height="30" as="geometry" />
        </mxCell>
        <mxCell id="rz5DC4yHk0Q_457Ff8-o-67" value="cache_miss_rate_tracker" style="text;whiteSpace=wrap;html=1;" parent="1" vertex="1">
          <mxGeometry x="630" y="730" width="170" height="40" as="geometry" />
        </mxCell>
        <mxCell id="rz5DC4yHk0Q_457Ff8-o-68" value="" style="edgeStyle=elbowEdgeStyle;elbow=horizontal;endArrow=classic;html=1;curved=0;rounded=0;endSize=8;startSize=8;exitX=1.067;exitY=0.075;exitDx=0;exitDy=0;exitPerimeter=0;" parent="1" edge="1">
          <mxGeometry width="50" height="50" relative="1" as="geometry">
            <mxPoint x="765" y="744.6" as="sourcePoint" />
            <mxPoint x="815" y="744.9" as="targetPoint" />
            <Array as="points">
              <mxPoint x="795" y="744.5" />
            </Array>
          </mxGeometry>
        </mxCell>
        <mxCell id="rz5DC4yHk0Q_457Ff8-o-69" value="exec_pressure_tracker" style="text;html=1;align=center;verticalAlign=middle;whiteSpace=wrap;rounded=0;" parent="1" vertex="1">
          <mxGeometry x="590" y="760" width="220" height="30" as="geometry" />
        </mxCell>
        <mxCell id="rz5DC4yHk0Q_457Ff8-o-71" value="" style="edgeStyle=elbowEdgeStyle;elbow=horizontal;endArrow=classic;html=1;curved=0;rounded=0;endSize=8;startSize=8;exitX=1.067;exitY=0.075;exitDx=0;exitDy=0;exitPerimeter=0;" parent="1" edge="1">
          <mxGeometry width="50" height="50" relative="1" as="geometry">
            <mxPoint x="765" y="778" as="sourcePoint" />
            <mxPoint x="850" y="750" as="targetPoint" />
            <Array as="points">
              <mxPoint x="850" y="770" />
            </Array>
          </mxGeometry>
        </mxCell>
        <mxCell id="rz5DC4yHk0Q_457Ff8-o-73" value="ml_prediction_action" style="text;html=1;align=center;verticalAlign=middle;whiteSpace=wrap;rounded=0;" parent="1" vertex="1">
          <mxGeometry x="655" y="680" width="60" height="30" as="geometry" />
        </mxCell>
        <mxCell id="rz5DC4yHk0Q_457Ff8-o-76" style="edgeStyle=orthogonalEdgeStyle;rounded=0;orthogonalLoop=1;jettySize=auto;html=1;exitX=1;exitY=0.25;exitDx=0;exitDy=0;entryX=0.25;entryY=1;entryDx=0;entryDy=0;" parent="1" source="rz5DC4yHk0Q_457Ff8-o-74" target="rz5DC4yHk0Q_457Ff8-o-5" edge="1">
          <mxGeometry relative="1" as="geometry" />
        </mxCell>
        <mxCell id="rz5DC4yHk0Q_457Ff8-o-74" value="&amp;nbsp;scaled_flush_threshold" style="text;whiteSpace=wrap;html=1;" parent="1" vertex="1">
          <mxGeometry x="640" y="800" width="130" height="40" as="geometry" />
        </mxCell>
        <mxCell id="rz5DC4yHk0Q_457Ff8-o-75" value="&lt;br&gt;&lt;span style=&quot;color: rgb(240, 240, 240); font-family: Helvetica; font-size: 12px; font-style: normal; font-variant-ligatures: normal; font-variant-caps: normal; font-weight: 400; letter-spacing: normal; orphans: 2; text-align: left; text-indent: 0px; text-transform: none; widows: 2; word-spacing: 0px; -webkit-text-stroke-width: 0px; white-space: normal; background-color: rgb(27, 29, 30); text-decoration-thickness: initial; text-decoration-style: initial; text-decoration-color: initial; display: inline !important; float: none;&quot;&gt;scaled_stall_threshold&lt;/span&gt;&lt;div&gt;&lt;br/&gt;&lt;/div&gt;" style="text;html=1;align=center;verticalAlign=middle;whiteSpace=wrap;rounded=0;" parent="1" vertex="1">
          <mxGeometry x="675" y="820" width="60" height="30" as="geometry" />
        </mxCell>
        <mxCell id="rz5DC4yHk0Q_457Ff8-o-77" style="edgeStyle=orthogonalEdgeStyle;rounded=0;orthogonalLoop=1;jettySize=auto;html=1;exitX=1;exitY=0.75;exitDx=0;exitDy=0;entryX=0.372;entryY=1.05;entryDx=0;entryDy=0;entryPerimeter=0;" parent="1" source="rz5DC4yHk0Q_457Ff8-o-74" target="rz5DC4yHk0Q_457Ff8-o-5" edge="1">
          <mxGeometry relative="1" as="geometry">
            <Array as="points">
              <mxPoint x="770" y="840" />
              <mxPoint x="887" y="840" />
            </Array>
          </mxGeometry>
        </mxCell>
        <mxCell id="rz5DC4yHk0Q_457Ff8-o-78" style="edgeStyle=orthogonalEdgeStyle;rounded=0;orthogonalLoop=1;jettySize=auto;html=1;" parent="1" edge="1">
          <mxGeometry relative="1" as="geometry">
            <mxPoint x="750" y="695" as="sourcePoint" />
            <mxPoint x="820" y="694.6" as="targetPoint" />
            <Array as="points">
              <mxPoint x="780" y="695" />
            </Array>
          </mxGeometry>
        </mxCell>
        <mxCell id="rz5DC4yHk0Q_457Ff8-o-79" value="" style="endArrow=classic;html=1;rounded=0;exitX=0.5;exitY=1;exitDx=0;exitDy=0;" parent="1" source="rz5DC4yHk0Q_457Ff8-o-1" edge="1">
          <mxGeometry width="50" height="50" relative="1" as="geometry">
            <mxPoint x="610" y="790" as="sourcePoint" />
            <mxPoint x="1290" y="760" as="targetPoint" />
          </mxGeometry>
        </mxCell>
        <mxCell id="rz5DC4yHk0Q_457Ff8-o-81" value="override_stall_sig" style="text;html=1;align=center;verticalAlign=middle;resizable=0;points=[];autosize=1;strokeColor=none;fillColor=none;" parent="1" vertex="1">
          <mxGeometry x="1040" y="710" width="120" height="30" as="geometry" />
        </mxCell>
        <mxCell id="rz5DC4yHk0Q_457Ff8-o-82" value="hazard_detected_level" style="text;html=1;align=center;verticalAlign=middle;resizable=0;points=[];autosize=1;strokeColor=none;fillColor=none;" parent="1" vertex="1">
          <mxGeometry x="1040" y="730" width="140" height="30" as="geometry" />
        </mxCell>
        <mxCell id="rz5DC4yHk0Q_457Ff8-o-83" value="override_flush_sig" style="text;html=1;align=center;verticalAlign=middle;resizable=0;points=[];autosize=1;strokeColor=none;fillColor=none;" parent="1" vertex="1">
          <mxGeometry x="1040" y="690" width="120" height="30" as="geometry" />
        </mxCell>
        <mxCell id="rz5DC4yHk0Q_457Ff8-o-89" value="" style="endArrow=none;html=1;rounded=0;" parent="1" edge="1">
          <mxGeometry width="50" height="50" relative="1" as="geometry">
            <mxPoint x="-240" y="200" as="sourcePoint" />
            <mxPoint x="1430" y="200" as="targetPoint" />
          </mxGeometry>
        </mxCell>
        <mxCell id="rz5DC4yHk0Q_457Ff8-o-90" value="" style="endArrow=none;html=1;rounded=0;" parent="1" edge="1">
          <mxGeometry width="50" height="50" relative="1" as="geometry">
            <mxPoint x="-240" y="1099" as="sourcePoint" />
            <mxPoint x="1430" y="1090" as="targetPoint" />
          </mxGeometry>
        </mxCell>
        <mxCell id="rz5DC4yHk0Q_457Ff8-o-91" value="" style="endArrow=none;html=1;rounded=0;" parent="1" edge="1">
          <mxGeometry width="50" height="50" relative="1" as="geometry">
            <mxPoint x="-240" y="1100" as="sourcePoint" />
            <mxPoint x="-240" y="200" as="targetPoint" />
          </mxGeometry>
        </mxCell>
        <mxCell id="rz5DC4yHk0Q_457Ff8-o-92" value="" style="endArrow=none;html=1;rounded=0;" parent="1" edge="1">
          <mxGeometry width="50" height="50" relative="1" as="geometry">
            <mxPoint x="1430" y="1110" as="sourcePoint" />
            <mxPoint x="1430" y="210" as="targetPoint" />
          </mxGeometry>
        </mxCell>
        <mxCell id="rz5DC4yHk0Q_457Ff8-o-93" value="&lt;font style=&quot;font-size: 36px;&quot;&gt;&lt;b&gt;pipeline_cpu&lt;/b&gt;&lt;/font&gt;" style="text;html=1;align=center;verticalAlign=middle;whiteSpace=wrap;rounded=0;" parent="1" vertex="1">
          <mxGeometry x="480" y="150" width="60" height="30" as="geometry" />
        </mxCell>
        <mxCell id="rz5DC4yHk0Q_457Ff8-o-95" value="" style="endArrow=classic;html=1;rounded=0;" parent="1" edge="1">
          <mxGeometry width="50" height="50" relative="1" as="geometry">
            <mxPoint x="1480" y="360" as="sourcePoint" />
            <mxPoint x="1570" y="360" as="targetPoint" />
          </mxGeometry>
        </mxCell>
        <mxCell id="rz5DC4yHk0Q_457Ff8-o-96" value="cpu_debug_pc" style="text;html=1;align=center;verticalAlign=middle;whiteSpace=wrap;rounded=0;" parent="1" vertex="1">
          <mxGeometry x="1580" y="345" width="60" height="30" as="geometry" />
        </mxCell>
        <mxCell id="rz5DC4yHk0Q_457Ff8-o-97" value="" style="endArrow=classic;html=1;rounded=0;" parent="1" edge="1">
          <mxGeometry width="50" height="50" relative="1" as="geometry">
            <mxPoint x="1480" y="410" as="sourcePoint" />
            <mxPoint x="1570" y="410" as="targetPoint" />
          </mxGeometry>
        </mxCell>
        <mxCell id="rz5DC4yHk0Q_457Ff8-o-98" value="cpu_debug_fsm_state" style="text;html=1;align=center;verticalAlign=middle;resizable=0;points=[];autosize=1;strokeColor=none;fillColor=none;" parent="1" vertex="1">
          <mxGeometry x="1560" y="400" width="140" height="30" as="geometry" />
        </mxCell>
        <mxCell id="rz5DC4yHk0Q_457Ff8-o-99" value="" style="endArrow=classic;html=1;rounded=0;" parent="1" edge="1">
          <mxGeometry width="50" height="50" relative="1" as="geometry">
            <mxPoint x="1480" y="470" as="sourcePoint" />
            <mxPoint x="1570" y="470" as="targetPoint" />
          </mxGeometry>
        </mxCell>
        <mxCell id="rz5DC4yHk0Q_457Ff8-o-100" value="cpu_debug_instr" style="text;html=1;align=center;verticalAlign=middle;resizable=0;points=[];autosize=1;strokeColor=none;fillColor=none;" parent="1" vertex="1">
          <mxGeometry x="1570" y="458" width="110" height="30" as="geometry" />
        </mxCell>
        <mxCell id="rz5DC4yHk0Q_457Ff8-o-101" value="" style="endArrow=classic;html=1;rounded=0;" parent="1" edge="1">
          <mxGeometry width="50" height="50" relative="1" as="geometry">
            <mxPoint x="1480" y="530" as="sourcePoint" />
            <mxPoint x="1570" y="530" as="targetPoint" />
          </mxGeometry>
        </mxCell>
        <mxCell id="rz5DC4yHk0Q_457Ff8-o-102" value="cpu_debug_stall" style="text;html=1;align=center;verticalAlign=middle;resizable=0;points=[];autosize=1;strokeColor=none;fillColor=none;" parent="1" vertex="1">
          <mxGeometry x="1570" y="518" width="110" height="30" as="geometry" />
        </mxCell>
        <mxCell id="rz5DC4yHk0Q_457Ff8-o-103" value="" style="endArrow=classic;html=1;rounded=0;" parent="1" edge="1">
          <mxGeometry width="50" height="50" relative="1" as="geometry">
            <mxPoint x="1480" y="579.33" as="sourcePoint" />
            <mxPoint x="1570" y="579.33" as="targetPoint" />
          </mxGeometry>
        </mxCell>
        <mxCell id="rz5DC4yHk0Q_457Ff8-o-104" value="cpu_debug_lock" style="text;html=1;align=center;verticalAlign=middle;whiteSpace=wrap;rounded=0;" parent="1" vertex="1">
          <mxGeometry x="1590" y="565" width="60" height="30" as="geometry" />
        </mxCell>
        <mxCell id="rz5DC4yHk0Q_457Ff8-o-105" value="" style="endArrow=classic;html=1;rounded=0;" parent="1" edge="1">
          <mxGeometry width="50" height="50" relative="1" as="geometry">
            <mxPoint x="1480" y="640" as="sourcePoint" />
            <mxPoint x="1570" y="640" as="targetPoint" />
          </mxGeometry>
        </mxCell>
        <mxCell id="rz5DC4yHk0Q_457Ff8-o-106" value="cpu_debug_fsm_entropy_log" style="text;html=1;align=center;verticalAlign=middle;resizable=0;points=[];autosize=1;strokeColor=none;fillColor=none;" parent="1" vertex="1">
          <mxGeometry x="1570" y="620" width="180" height="30" as="geometry" />
        </mxCell>
        <mxCell id="rz5DC4yHk0Q_457Ff8-o-107" value="" style="endArrow=classic;html=1;rounded=0;" parent="1" edge="1">
          <mxGeometry width="50" height="50" relative="1" as="geometry">
            <mxPoint x="1480" y="694.33" as="sourcePoint" />
            <mxPoint x="1570" y="694.33" as="targetPoint" />
          </mxGeometry>
        </mxCell>
        <mxCell id="rz5DC4yHk0Q_457Ff8-o-108" value="cpu_debug_fsm_instr_type_log" style="text;html=1;align=center;verticalAlign=middle;resizable=0;points=[];autosize=1;strokeColor=none;fillColor=none;" parent="1" vertex="1">
          <mxGeometry x="1570" y="680" width="190" height="30" as="geometry" />
        </mxCell>
        <mxCell id="rz5DC4yHk0Q_457Ff8-o-109" value="" style="endArrow=classic;html=1;rounded=0;" parent="1" edge="1">
          <mxGeometry width="50" height="50" relative="1" as="geometry">
            <mxPoint x="1480" y="502.33" as="sourcePoint" />
            <mxPoint x="1570" y="502.33" as="targetPoint" />
          </mxGeometry>
        </mxCell>
        <mxCell id="rz5DC4yHk0Q_457Ff8-o-110" value="cpu_debug_flush" style="text;html=1;align=center;verticalAlign=middle;resizable=0;points=[];autosize=1;strokeColor=none;fillColor=none;" parent="1" vertex="1">
          <mxGeometry x="1570" y="490" width="110" height="30" as="geometry" />
        </mxCell>
        <mxCell id="rz5DC4yHk0Q_457Ff8-o-112" value="" style="endArrow=none;html=1;rounded=0;" parent="1" edge="1">
          <mxGeometry width="50" height="50" relative="1" as="geometry">
            <mxPoint x="-330" y="120" as="sourcePoint" />
            <mxPoint x="1480" y="120" as="targetPoint" />
          </mxGeometry>
        </mxCell>
        <mxCell id="rz5DC4yHk0Q_457Ff8-o-113" value="" style="endArrow=none;html=1;rounded=0;" parent="1" edge="1">
          <mxGeometry width="50" height="50" relative="1" as="geometry">
            <mxPoint x="-330" y="1200" as="sourcePoint" />
            <mxPoint x="1485" y="1200" as="targetPoint" />
          </mxGeometry>
        </mxCell>
        <mxCell id="rz5DC4yHk0Q_457Ff8-o-115" value="" style="endArrow=none;html=1;rounded=0;" parent="1" edge="1">
          <mxGeometry width="50" height="50" relative="1" as="geometry">
            <mxPoint x="-330" y="1200" as="sourcePoint" />
            <mxPoint x="-330" y="120" as="targetPoint" />
          </mxGeometry>
        </mxCell>
        <mxCell id="rz5DC4yHk0Q_457Ff8-o-116" value="" style="endArrow=none;html=1;rounded=0;" parent="1" edge="1">
          <mxGeometry width="50" height="50" relative="1" as="geometry">
            <mxPoint x="1480" y="1200" as="sourcePoint" />
            <mxPoint x="1480" y="120" as="targetPoint" />
          </mxGeometry>
        </mxCell>
        <mxCell id="rz5DC4yHk0Q_457Ff8-o-117" value="&lt;font style=&quot;font-size: 36px;&quot;&gt;&lt;b&gt;archon_top&lt;/b&gt;&lt;/font&gt;" style="text;html=1;align=center;verticalAlign=middle;resizable=0;points=[];autosize=1;strokeColor=none;fillColor=none;" parent="1" vertex="1">
          <mxGeometry x="390" y="60" width="220" height="60" as="geometry" />
        </mxCell>
        <mxCell id="rz5DC4yHk0Q_457Ff8-o-118" value="" style="endArrow=classic;html=1;rounded=0;" parent="1" edge="1">
          <mxGeometry width="50" height="50" relative="1" as="geometry">
            <mxPoint x="-490" y="320" as="sourcePoint" />
            <mxPoint x="-240" y="320" as="targetPoint" />
          </mxGeometry>
        </mxCell>
        <mxCell id="rz5DC4yHk0Q_457Ff8-o-120" value="&lt;div style=&quot;color: rgb(248, 248, 242); background-color: rgb(40, 42, 54); font-family: Consolas, &amp;quot;Courier New&amp;quot;, monospace; font-size: 14px; line-height: 19px; white-space: pre;&quot;&gt;clk&lt;/div&gt;" style="text;html=1;align=center;verticalAlign=middle;whiteSpace=wrap;rounded=0;" parent="1" vertex="1">
          <mxGeometry x="-550" y="310" width="60" height="30" as="geometry" />
        </mxCell>
        <mxCell id="rz5DC4yHk0Q_457Ff8-o-128" style="edgeStyle=orthogonalEdgeStyle;rounded=0;orthogonalLoop=1;jettySize=auto;html=1;exitX=1;exitY=0.5;exitDx=0;exitDy=0;" parent="1" source="rz5DC4yHk0Q_457Ff8-o-121" edge="1">
          <mxGeometry relative="1" as="geometry">
            <mxPoint x="-240" y="375.66666666666674" as="targetPoint" />
          </mxGeometry>
        </mxCell>
        <mxCell id="rz5DC4yHk0Q_457Ff8-o-121" value="reset" style="text;html=1;align=center;verticalAlign=middle;whiteSpace=wrap;rounded=0;" parent="1" vertex="1">
          <mxGeometry x="-560" y="360" width="60" height="30" as="geometry" />
        </mxCell>
        <mxCell id="rz5DC4yHk0Q_457Ff8-o-131" style="edgeStyle=orthogonalEdgeStyle;rounded=0;orthogonalLoop=1;jettySize=auto;html=1;exitX=1;exitY=0.5;exitDx=0;exitDy=0;" parent="1" edge="1">
          <mxGeometry relative="1" as="geometry">
            <mxPoint x="-240" y="400.66666666666674" as="targetPoint" />
            <mxPoint x="-500" y="400" as="sourcePoint" />
          </mxGeometry>
        </mxCell>
        <mxCell id="rz5DC4yHk0Q_457Ff8-o-122" value="ml_prediced_action" style="text;html=1;align=center;verticalAlign=middle;whiteSpace=wrap;rounded=0;" parent="1" vertex="1">
          <mxGeometry x="-590" y="390" width="60" height="30" as="geometry" />
        </mxCell>
        <mxCell id="rz5DC4yHk0Q_457Ff8-o-124" value="analog_flush_overide" style="text;html=1;align=center;verticalAlign=middle;whiteSpace=wrap;rounded=0;" parent="1" vertex="1">
          <mxGeometry x="-550" y="500" width="60" height="30" as="geometry" />
        </mxCell>
        <mxCell id="rz5DC4yHk0Q_457Ff8-o-125" value="analog_lock_override" style="text;html=1;align=center;verticalAlign=middle;whiteSpace=wrap;rounded=0;" parent="1" vertex="1">
          <mxGeometry x="-560" y="565" width="60" height="30" as="geometry" />
        </mxCell>
        <mxCell id="rz5DC4yHk0Q_457Ff8-o-126" value="quantum_override_signal" style="text;html=1;align=center;verticalAlign=middle;resizable=0;points=[];autosize=1;strokeColor=none;fillColor=none;" parent="1" vertex="1">
          <mxGeometry x="-600" y="610" width="160" height="30" as="geometry" />
        </mxCell>
        <mxCell id="rz5DC4yHk0Q_457Ff8-o-127" value="external_entropy_in" style="text;html=1;align=center;verticalAlign=middle;resizable=0;points=[];autosize=1;strokeColor=none;fillColor=none;" parent="1" vertex="1">
          <mxGeometry x="-575" y="688" width="130" height="30" as="geometry" />
        </mxCell>
        <mxCell id="rz5DC4yHk0Q_457Ff8-o-132" style="edgeStyle=orthogonalEdgeStyle;rounded=0;orthogonalLoop=1;jettySize=auto;html=1;" parent="1" target="saIM61kvLU6ngbY4BZQx-12" edge="1">
          <mxGeometry relative="1" as="geometry">
            <mxPoint x="-240" y="459" as="targetPoint" />
            <mxPoint x="-330" y="460" as="sourcePoint" />
            <Array as="points">
              <mxPoint x="-430" y="460" />
              <mxPoint x="-430" y="458" />
              <mxPoint x="-310" y="458" />
              <mxPoint x="-310" y="420" />
              <mxPoint x="970" y="420" />
            </Array>
          </mxGeometry>
        </mxCell>
        <mxCell id="rz5DC4yHk0Q_457Ff8-o-133" style="edgeStyle=orthogonalEdgeStyle;rounded=0;orthogonalLoop=1;jettySize=auto;html=1;exitX=1;exitY=0.5;exitDx=0;exitDy=0;" parent="1" edge="1">
          <mxGeometry relative="1" as="geometry">
            <mxPoint x="-250" y="515" as="targetPoint" />
            <mxPoint x="-460" y="514.33" as="sourcePoint" />
          </mxGeometry>
        </mxCell>
        <mxCell id="rz5DC4yHk0Q_457Ff8-o-134" style="edgeStyle=orthogonalEdgeStyle;rounded=0;orthogonalLoop=1;jettySize=auto;html=1;exitX=1;exitY=0.5;exitDx=0;exitDy=0;" parent="1" edge="1">
          <mxGeometry relative="1" as="geometry">
            <mxPoint x="-250" y="580" as="targetPoint" />
            <mxPoint x="-470" y="579.33" as="sourcePoint" />
          </mxGeometry>
        </mxCell>
        <mxCell id="rz5DC4yHk0Q_457Ff8-o-135" style="edgeStyle=orthogonalEdgeStyle;rounded=0;orthogonalLoop=1;jettySize=auto;html=1;exitX=1;exitY=0.5;exitDx=0;exitDy=0;" parent="1" edge="1">
          <mxGeometry relative="1" as="geometry">
            <mxPoint x="-250" y="625" as="targetPoint" />
            <mxPoint x="-445" y="624.33" as="sourcePoint" />
          </mxGeometry>
        </mxCell>
        <mxCell id="rz5DC4yHk0Q_457Ff8-o-136" style="edgeStyle=orthogonalEdgeStyle;rounded=0;orthogonalLoop=1;jettySize=auto;html=1;exitX=1;exitY=0.5;exitDx=0;exitDy=0;" parent="1" edge="1">
          <mxGeometry relative="1" as="geometry">
            <mxPoint x="-250" y="705" as="targetPoint" />
            <mxPoint x="-450" y="704.33" as="sourcePoint" />
          </mxGeometry>
        </mxCell>
        <mxCell id="IngF7UV0qDA4tY-HD0y0-1" value="analog_entropy_raw" style="text;html=1;align=center;verticalAlign=middle;resizable=0;points=[];autosize=1;strokeColor=none;fillColor=none;" vertex="1" parent="1">
          <mxGeometry x="-565" y="440" width="130" height="30" as="geometry" />
        </mxCell>
        <mxCell id="IngF7UV0qDA4tY-HD0y0-3" value="ml_risk_flag_top" style="text;html=1;align=center;verticalAlign=middle;resizable=0;points=[];autosize=1;strokeColor=none;fillColor=none;" vertex="1" parent="1">
          <mxGeometry x="-575" y="735" width="110" height="30" as="geometry" />
        </mxCell>
        <mxCell id="IngF7UV0qDA4tY-HD0y0-4" value="manual_lock_top" style="text;html=1;align=center;verticalAlign=middle;resizable=0;points=[];autosize=1;strokeColor=none;fillColor=none;" vertex="1" parent="1">
          <mxGeometry x="-585" y="788" width="110" height="30" as="geometry" />
        </mxCell>
        <mxCell id="IngF7UV0qDA4tY-HD0y0-5" value="mission_profile" style="text;html=1;align=center;verticalAlign=middle;resizable=0;points=[];autosize=1;strokeColor=none;fillColor=none;" vertex="1" parent="1">
          <mxGeometry x="-590" y="838" width="100" height="30" as="geometry" />
        </mxCell>
        <mxCell id="IngF7UV0qDA4tY-HD0y0-6" value="override_authentication_valid" style="text;html=1;align=center;verticalAlign=middle;resizable=0;points=[];autosize=1;strokeColor=none;fillColor=none;" vertex="1" parent="1">
          <mxGeometry x="-595" y="868" width="180" height="30" as="geometry" />
        </mxCell>
        <mxCell id="IngF7UV0qDA4tY-HD0y0-7" value="entropy_threshold_fsm" style="text;whiteSpace=wrap;" vertex="1" parent="1">
          <mxGeometry x="-580" y="900" width="160" height="40" as="geometry" />
        </mxCell>
        <mxCell id="IngF7UV0qDA4tY-HD0y0-8" style="edgeStyle=orthogonalEdgeStyle;rounded=0;orthogonalLoop=1;jettySize=auto;html=1;exitX=1;exitY=0.5;exitDx=0;exitDy=0;" edge="1" parent="1">
          <mxGeometry relative="1" as="geometry">
            <mxPoint x="-260" y="759.24" as="targetPoint" />
            <mxPoint x="-460" y="758.57" as="sourcePoint" />
          </mxGeometry>
        </mxCell>
        <mxCell id="IngF7UV0qDA4tY-HD0y0-9" style="edgeStyle=orthogonalEdgeStyle;rounded=0;orthogonalLoop=1;jettySize=auto;html=1;exitX=1;exitY=0.5;exitDx=0;exitDy=0;" edge="1" parent="1">
          <mxGeometry relative="1" as="geometry">
            <mxPoint x="-265" y="802.9599999999999" as="targetPoint" />
            <mxPoint x="-465" y="802.29" as="sourcePoint" />
          </mxGeometry>
        </mxCell>
        <mxCell id="IngF7UV0qDA4tY-HD0y0-10" style="edgeStyle=orthogonalEdgeStyle;rounded=0;orthogonalLoop=1;jettySize=auto;html=1;exitX=1;exitY=0.5;exitDx=0;exitDy=0;" edge="1" parent="1">
          <mxGeometry relative="1" as="geometry">
            <mxPoint x="-275" y="860.67" as="targetPoint" />
            <mxPoint x="-475" y="860" as="sourcePoint" />
          </mxGeometry>
        </mxCell>
        <mxCell id="IngF7UV0qDA4tY-HD0y0-11" style="edgeStyle=orthogonalEdgeStyle;rounded=0;orthogonalLoop=1;jettySize=auto;html=1;exitX=1;exitY=0.5;exitDx=0;exitDy=0;" edge="1" parent="1">
          <mxGeometry relative="1" as="geometry">
            <mxPoint x="-210" y="882.9599999999999" as="targetPoint" />
            <mxPoint x="-410" y="882.29" as="sourcePoint" />
          </mxGeometry>
        </mxCell>
        <mxCell id="IngF7UV0qDA4tY-HD0y0-12" style="edgeStyle=orthogonalEdgeStyle;rounded=0;orthogonalLoop=1;jettySize=auto;html=1;exitX=1;exitY=0.5;exitDx=0;exitDy=0;" edge="1" parent="1">
          <mxGeometry relative="1" as="geometry">
            <mxPoint x="-250" y="919.24" as="targetPoint" />
            <mxPoint x="-450" y="918.57" as="sourcePoint" />
          </mxGeometry>
        </mxCell>
        <mxCell id="IngF7UV0qDA4tY-HD0y0-13" value="rst_n" style="text;html=1;align=center;verticalAlign=middle;resizable=0;points=[];autosize=1;strokeColor=none;fillColor=none;" vertex="1" parent="1">
          <mxGeometry x="65" y="500" width="50" height="30" as="geometry" />
        </mxCell>
        <mxCell id="IngF7UV0qDA4tY-HD0y0-14" value="" style="edgeStyle=elbowEdgeStyle;elbow=horizontal;endArrow=classic;html=1;curved=0;rounded=0;endSize=8;startSize=8;exitX=1.067;exitY=0.075;exitDx=0;exitDy=0;exitPerimeter=0;" edge="1" parent="1">
          <mxGeometry width="50" height="50" relative="1" as="geometry">
            <mxPoint x="115" y="516.89" as="sourcePoint" />
            <mxPoint x="290" y="517" as="targetPoint" />
            <Array as="points">
              <mxPoint x="120.98000000000002" y="516.89" />
            </Array>
          </mxGeometry>
        </mxCell>
        <mxCell id="IngF7UV0qDA4tY-HD0y0-15" value="" style="edgeStyle=elbowEdgeStyle;elbow=horizontal;endArrow=classic;html=1;curved=0;rounded=0;endSize=8;startSize=8;exitX=1.067;exitY=0.075;exitDx=0;exitDy=0;exitPerimeter=0;entryX=0.003;entryY=0.135;entryDx=0;entryDy=0;entryPerimeter=0;" edge="1" parent="1">
          <mxGeometry width="50" height="50" relative="1" as="geometry">
            <mxPoint x="223.06" y="546.67" as="sourcePoint" />
            <mxPoint x="290.00000000000006" y="546.57" as="targetPoint" />
            <Array as="points">
              <mxPoint x="229.04000000000002" y="546.67" />
            </Array>
          </mxGeometry>
        </mxCell>
        <mxCell id="IngF7UV0qDA4tY-HD0y0-24" value="" style="edgeStyle=orthogonalEdgeStyle;rounded=0;orthogonalLoop=1;jettySize=auto;html=1;" edge="1" parent="1" source="IngF7UV0qDA4tY-HD0y0-16" target="saIM61kvLU6ngbY4BZQx-4">
          <mxGeometry relative="1" as="geometry">
            <Array as="points">
              <mxPoint x="330" y="800" />
              <mxPoint x="330" y="800" />
            </Array>
          </mxGeometry>
        </mxCell>
        <mxCell id="IngF7UV0qDA4tY-HD0y0-16" value="shock_detected_in" style="text;whiteSpace=wrap;html=1;" vertex="1" parent="1">
          <mxGeometry x="120" y="780" width="110" height="40" as="geometry" />
        </mxCell>
        <mxCell id="IngF7UV0qDA4tY-HD0y0-17" value="mission_profile_in" style="text;whiteSpace=wrap;html=1;" vertex="1" parent="1">
          <mxGeometry x="115" y="815" width="130" height="40" as="geometry" />
        </mxCell>
        <mxCell id="IngF7UV0qDA4tY-HD0y0-18" value="override_authentication_valid_in" style="text;whiteSpace=wrap;html=1;" vertex="1" parent="1">
          <mxGeometry x="65" y="480" width="210" height="40" as="geometry" />
        </mxCell>
        <mxCell id="IngF7UV0qDA4tY-HD0y0-19" value="entropy_threshold_fsm_in" style="text;whiteSpace=wrap;" vertex="1" parent="1">
          <mxGeometry x="65" y="450" width="170" height="40" as="geometry" />
        </mxCell>
        <mxCell id="IngF7UV0qDA4tY-HD0y0-20" value="entropy_log_out" style="text;whiteSpace=wrap;html=1;" vertex="1" parent="1">
          <mxGeometry x="710" y="605" width="120" height="40" as="geometry" />
        </mxCell>
        <mxCell id="IngF7UV0qDA4tY-HD0y0-21" value="instr_type_log_out" style="text;whiteSpace=wrap;" vertex="1" parent="1">
          <mxGeometry x="710" y="580" width="130" height="40" as="geometry" />
        </mxCell>
        <mxCell id="IngF7UV0qDA4tY-HD0y0-22" value="" style="edgeStyle=elbowEdgeStyle;elbow=horizontal;endArrow=classic;html=1;curved=0;rounded=0;endSize=8;startSize=8;exitX=1.067;exitY=0.075;exitDx=0;exitDy=0;exitPerimeter=0;entryX=0.003;entryY=0.135;entryDx=0;entryDy=0;entryPerimeter=0;" edge="1" parent="1">
          <mxGeometry width="50" height="50" relative="1" as="geometry">
            <mxPoint x="630" y="593.67" as="sourcePoint" />
            <mxPoint x="696.94" y="593.57" as="targetPoint" />
            <Array as="points">
              <mxPoint x="635.98" y="593.67" />
            </Array>
          </mxGeometry>
        </mxCell>
        <mxCell id="IngF7UV0qDA4tY-HD0y0-23" value="" style="edgeStyle=elbowEdgeStyle;elbow=horizontal;endArrow=classic;html=1;curved=0;rounded=0;endSize=8;startSize=8;exitX=1.067;exitY=0.075;exitDx=0;exitDy=0;exitPerimeter=0;entryX=0.003;entryY=0.135;entryDx=0;entryDy=0;entryPerimeter=0;" edge="1" parent="1">
          <mxGeometry width="50" height="50" relative="1" as="geometry">
            <mxPoint x="630" y="618.67" as="sourcePoint" />
            <mxPoint x="696.94" y="618.57" as="targetPoint" />
            <Array as="points">
              <mxPoint x="635.98" y="618.67" />
            </Array>
          </mxGeometry>
        </mxCell>
        <mxCell id="IngF7UV0qDA4tY-HD0y0-26" value="" style="edgeStyle=elbowEdgeStyle;elbow=horizontal;endArrow=classic;html=1;curved=0;rounded=0;endSize=8;startSize=8;exitX=1.067;exitY=0.075;exitDx=0;exitDy=0;exitPerimeter=0;" edge="1" parent="1">
          <mxGeometry width="50" height="50" relative="1" as="geometry">
            <mxPoint x="250" y="498.67" as="sourcePoint" />
            <mxPoint x="290" y="490" as="targetPoint" />
            <Array as="points">
              <mxPoint x="255.98000000000002" y="498.67" />
            </Array>
          </mxGeometry>
        </mxCell>
        <mxCell id="IngF7UV0qDA4tY-HD0y0-28" value="" style="edgeStyle=elbowEdgeStyle;elbow=horizontal;endArrow=classic;html=1;curved=0;rounded=0;endSize=8;startSize=8;exitX=1.067;exitY=0.075;exitDx=0;exitDy=0;exitPerimeter=0;entryX=0.003;entryY=0.135;entryDx=0;entryDy=0;entryPerimeter=0;" edge="1" parent="1">
          <mxGeometry width="50" height="50" relative="1" as="geometry">
            <mxPoint x="215" y="460.1" as="sourcePoint" />
            <mxPoint x="281.94000000000005" y="460.0000000000001" as="targetPoint" />
            <Array as="points">
              <mxPoint x="220.98000000000002" y="460.1" />
            </Array>
          </mxGeometry>
        </mxCell>
        <mxCell id="IngF7UV0qDA4tY-HD0y0-30" value="" style="edgeStyle=elbowEdgeStyle;elbow=horizontal;endArrow=classic;html=1;curved=0;rounded=0;endSize=8;startSize=8;exitX=1.067;exitY=0.075;exitDx=0;exitDy=0;exitPerimeter=0;entryX=0.003;entryY=0.135;entryDx=0;entryDy=0;entryPerimeter=0;" edge="1" parent="1">
          <mxGeometry width="50" height="50" relative="1" as="geometry">
            <mxPoint x="223.06" y="830.1" as="sourcePoint" />
            <mxPoint x="290.00000000000006" y="830.0000000000001" as="targetPoint" />
            <Array as="points">
              <mxPoint x="229.04000000000002" y="830.1" />
            </Array>
          </mxGeometry>
        </mxCell>
        <mxCell id="IngF7UV0qDA4tY-HD0y0-32" value="system_enable_fire_pulse" style="text;whiteSpace=wrap;html=1;" vertex="1" parent="1">
          <mxGeometry x="1580" y="718" width="170" height="40" as="geometry" />
        </mxCell>
        <mxCell id="IngF7UV0qDA4tY-HD0y0-33" value="cpu_debug_classified_entropy" style="text;whiteSpace=wrap;html=1;" vertex="1" parent="1">
          <mxGeometry x="1580" y="755" width="200" height="40" as="geometry" />
        </mxCell>
        <mxCell id="IngF7UV0qDA4tY-HD0y0-34" value="cpu_debug_shock_detected" style="text;whiteSpace=wrap;html=1;" vertex="1" parent="1">
          <mxGeometry x="1580" y="800" width="180" height="40" as="geometry" />
        </mxCell>
        <mxCell id="IngF7UV0qDA4tY-HD0y0-35" value="cpu_debug_hazard_flag" style="text;html=1;align=center;verticalAlign=middle;resizable=0;points=[];autosize=1;strokeColor=none;fillColor=none;" vertex="1" parent="1">
          <mxGeometry x="1560" y="315" width="150" height="30" as="geometry" />
        </mxCell>
        <mxCell id="IngF7UV0qDA4tY-HD0y0-36" value="" style="endArrow=classic;html=1;rounded=0;" edge="1" parent="1">
          <mxGeometry width="50" height="50" relative="1" as="geometry">
            <mxPoint x="1480" y="330" as="sourcePoint" />
            <mxPoint x="1570" y="330" as="targetPoint" />
          </mxGeometry>
        </mxCell>
        <mxCell id="IngF7UV0qDA4tY-HD0y0-37" value="" style="endArrow=classic;html=1;rounded=0;" edge="1" parent="1">
          <mxGeometry width="50" height="50" relative="1" as="geometry">
            <mxPoint x="1480" y="730" as="sourcePoint" />
            <mxPoint x="1570" y="730" as="targetPoint" />
          </mxGeometry>
        </mxCell>
        <mxCell id="IngF7UV0qDA4tY-HD0y0-38" value="" style="endArrow=classic;html=1;rounded=0;" edge="1" parent="1">
          <mxGeometry width="50" height="50" relative="1" as="geometry">
            <mxPoint x="1490" y="770" as="sourcePoint" />
            <mxPoint x="1580" y="770" as="targetPoint" />
          </mxGeometry>
        </mxCell>
        <mxCell id="IngF7UV0qDA4tY-HD0y0-39" value="" style="endArrow=classic;html=1;rounded=0;" edge="1" parent="1">
          <mxGeometry width="50" height="50" relative="1" as="geometry">
            <mxPoint x="1480" y="815" as="sourcePoint" />
            <mxPoint x="1570" y="815" as="targetPoint" />
          </mxGeometry>
        </mxCell>
        <mxCell id="IngF7UV0qDA4tY-HD0y0-40" value="parameter [7:0] THRESHOLD = 8&#39;d20;" style="rounded=1;whiteSpace=wrap;html=1;" vertex="1" parent="1">
          <mxGeometry x="715" y="280" width="190" height="120" as="geometry" />
        </mxCell>
        <mxCell id="IngF7UV0qDA4tY-HD0y0-41" value="analog_entropy_in" style="text;whiteSpace=wrap;html=1;" vertex="1" parent="1">
          <mxGeometry x="540" y="300" width="110" height="40" as="geometry" />
        </mxCell>
        <mxCell id="IngF7UV0qDA4tY-HD0y0-43" value="shock_detected" style="text;whiteSpace=wrap;" vertex="1" parent="1">
          <mxGeometry x="980" y="295" width="90" height="40" as="geometry" />
        </mxCell>
        <mxCell id="IngF7UV0qDA4tY-HD0y0-46" value="" style="edgeStyle=elbowEdgeStyle;elbow=horizontal;endArrow=classic;html=1;curved=0;rounded=0;endSize=8;startSize=8;exitX=1.067;exitY=0.075;exitDx=0;exitDy=0;exitPerimeter=0;entryX=0.003;entryY=0.135;entryDx=0;entryDy=0;entryPerimeter=0;" edge="1" parent="1">
          <mxGeometry width="50" height="50" relative="1" as="geometry">
            <mxPoint x="648.06" y="315.1" as="sourcePoint" />
            <mxPoint x="715" y="315.0000000000001" as="targetPoint" />
            <Array as="points">
              <mxPoint x="654.04" y="315.1" />
            </Array>
          </mxGeometry>
        </mxCell>
        <mxCell id="IngF7UV0qDA4tY-HD0y0-47" value="" style="edgeStyle=elbowEdgeStyle;elbow=horizontal;endArrow=classic;html=1;curved=0;rounded=0;endSize=8;startSize=8;exitX=1.067;exitY=0.075;exitDx=0;exitDy=0;exitPerimeter=0;entryX=0.003;entryY=0.135;entryDx=0;entryDy=0;entryPerimeter=0;" edge="1" parent="1">
          <mxGeometry width="50" height="50" relative="1" as="geometry">
            <mxPoint x="903.06" y="310.1" as="sourcePoint" />
            <mxPoint x="970" y="310.0000000000001" as="targetPoint" />
            <Array as="points">
              <mxPoint x="909.04" y="310.1" />
            </Array>
          </mxGeometry>
        </mxCell>
        <mxCell id="IngF7UV0qDA4tY-HD0y0-49" value="&lt;font style=&quot;font-size: 18px;&quot;&gt;&lt;b&gt;entropy_shock_filter&lt;/b&gt;&lt;/font&gt;" style="text;html=1;align=center;verticalAlign=middle;whiteSpace=wrap;rounded=0;" vertex="1" parent="1">
          <mxGeometry x="776" y="295" width="60" height="30" as="geometry" />
        </mxCell>
        <mxCell id="IngF7UV0qDA4tY-HD0y0-50" value="parameter THRESHOLD_LOW_TO_MID = 8&#39;d85;&amp;nbsp; &amp;nbsp;&amp;nbsp;&lt;br&gt;&amp;nbsp; &amp;nbsp; parameter THRESHOLD_MID_TO_CRITICAL = 8&#39;d170; /" style="text;html=1;align=center;verticalAlign=middle;whiteSpace=wrap;rounded=0;" vertex="1" parent="1">
          <mxGeometry x="1260" y="590" width="60" height="30" as="geometry" />
        </mxCell>
        <mxCell id="IngF7UV0qDA4tY-HD0y0-60" value="&lt;span style=&quot;text-align: left;&quot;&gt;&lt;font style=&quot;font-size: 18px;&quot;&gt;&lt;b&gt;trigger_authorizer&lt;/b&gt;&lt;/font&gt;&lt;/span&gt;" style="rounded=1;whiteSpace=wrap;html=1;" vertex="1" parent="1">
          <mxGeometry x="1040" y="890" width="190" height="140" as="geometry" />
        </mxCell>
        <mxCell id="IngF7UV0qDA4tY-HD0y0-62" value="rst_n" style="text;whiteSpace=wrap;html=1;" vertex="1" parent="1">
          <mxGeometry x="1150" y="775" width="60" height="40" as="geometry" />
        </mxCell>
        <mxCell id="IngF7UV0qDA4tY-HD0y0-74" style="edgeStyle=orthogonalEdgeStyle;rounded=0;orthogonalLoop=1;jettySize=auto;html=1;exitX=0.5;exitY=1;exitDx=0;exitDy=0;" edge="1" parent="1" source="IngF7UV0qDA4tY-HD0y0-64">
          <mxGeometry relative="1" as="geometry">
            <mxPoint x="1120.4705882352941" y="880" as="targetPoint" />
          </mxGeometry>
        </mxCell>
        <mxCell id="IngF7UV0qDA4tY-HD0y0-64" value="entropy_score" style="text;whiteSpace=wrap;" vertex="1" parent="1">
          <mxGeometry x="1065" y="775" width="110" height="40" as="geometry" />
        </mxCell>
        <mxCell id="IngF7UV0qDA4tY-HD0y0-77" style="edgeStyle=orthogonalEdgeStyle;rounded=0;orthogonalLoop=1;jettySize=auto;html=1;exitX=0.5;exitY=0;exitDx=0;exitDy=0;" edge="1" parent="1" source="IngF7UV0qDA4tY-HD0y0-65">
          <mxGeometry relative="1" as="geometry">
            <mxPoint x="1145.1764705882356" y="1040" as="targetPoint" />
          </mxGeometry>
        </mxCell>
        <mxCell id="IngF7UV0qDA4tY-HD0y0-65" value="analog_spike_detected" style="text;whiteSpace=wrap;" vertex="1" parent="1">
          <mxGeometry x="1065" y="1060" width="160" height="40" as="geometry" />
        </mxCell>
        <mxCell id="IngF7UV0qDA4tY-HD0y0-76" style="edgeStyle=orthogonalEdgeStyle;rounded=0;orthogonalLoop=1;jettySize=auto;html=1;exitX=0.5;exitY=1;exitDx=0;exitDy=0;" edge="1" parent="1" source="IngF7UV0qDA4tY-HD0y0-66">
          <mxGeometry relative="1" as="geometry">
            <mxPoint x="1170" y="880" as="targetPoint" />
          </mxGeometry>
        </mxCell>
        <mxCell id="IngF7UV0qDA4tY-HD0y0-66" value="ml_risk_flag" style="text;whiteSpace=wrap;" vertex="1" parent="1">
          <mxGeometry x="1200" y="800" width="100" height="40" as="geometry" />
        </mxCell>
        <mxCell id="IngF7UV0qDA4tY-HD0y0-75" style="edgeStyle=orthogonalEdgeStyle;rounded=0;orthogonalLoop=1;jettySize=auto;html=1;exitX=0.5;exitY=1;exitDx=0;exitDy=0;" edge="1" parent="1" source="IngF7UV0qDA4tY-HD0y0-67">
          <mxGeometry relative="1" as="geometry">
            <mxPoint x="1070" y="880" as="targetPoint" />
          </mxGeometry>
        </mxCell>
        <mxCell id="IngF7UV0qDA4tY-HD0y0-67" value="manual_lock" style="text;whiteSpace=wrap;" vertex="1" parent="1">
          <mxGeometry x="990" y="775" width="100" height="40" as="geometry" />
        </mxCell>
        <mxCell id="IngF7UV0qDA4tY-HD0y0-68" value="enable_fire" style="text;whiteSpace=wrap;" vertex="1" parent="1">
          <mxGeometry x="1310" y="945" width="90" height="40" as="geometry" />
        </mxCell>
        <mxCell id="IngF7UV0qDA4tY-HD0y0-70" value="" style="edgeStyle=elbowEdgeStyle;elbow=horizontal;endArrow=classic;html=1;curved=0;rounded=0;endSize=8;startSize=8;exitX=1.067;exitY=0.075;exitDx=0;exitDy=0;exitPerimeter=0;entryX=0.003;entryY=0.135;entryDx=0;entryDy=0;entryPerimeter=0;" edge="1" parent="1">
          <mxGeometry width="50" height="50" relative="1" as="geometry">
            <mxPoint x="1242" y="960.1" as="sourcePoint" />
            <mxPoint x="1308.94" y="960.0000000000001" as="targetPoint" />
            <Array as="points">
              <mxPoint x="1247.98" y="960.1" />
            </Array>
          </mxGeometry>
        </mxCell>
        <mxCell id="IngF7UV0qDA4tY-HD0y0-78" value="localparam ENTROPY_FIRE_THRESHOLD = 8&#39;d100;" style="text;html=1;align=center;verticalAlign=middle;whiteSpace=wrap;rounded=0;" vertex="1" parent="1">
          <mxGeometry x="1105" y="980" width="60" height="30" as="geometry" />
        </mxCell>
      </root>
    </mxGraphModel>
  </diagram>
  <diagram id="hGVlt7QE5upHBWAtnf1I" name="Page-2">
    <mxGraphModel dx="1434" dy="884" grid="1" gridSize="10" guides="1" tooltips="1" connect="1" arrows="1" fold="1" page="1" pageScale="1" pageWidth="850" pageHeight="1100" math="0" shadow="0">
      <root>
        <mxCell id="0" />
        <mxCell id="1" parent="0" />
      </root>
    </mxGraphModel>
  </diagram>
</mxfile>
